<?xml version="1.0" standalone="no"?>
<!DOCTYPE svg PUBLIC "-//W3C//DTD SVG 20010904//EN"
 "http://www.w3.org/TR/2001/REC-SVG-20010904/DTD/svg10.dtd">
<svg version="1.0" xmlns="http://www.w3.org/2000/svg"
 width="464.000000pt" height="464.000000pt" viewBox="0 0 464.000000 464.000000"
 preserveAspectRatio="xMidYMid meet">
<metadata>
Created by potrace 1.15, written by Peter Selinger 2001-2017
</metadata>
<g transform="translate(0.000000,464.000000) scale(0.100000,-0.100000)"
fill="#000000" stroke="none">
<path d="M2000 4624 c-391 -53 -814 -232 -1115 -472 -222 -178 -397 -373 -539
-602 -52 -84 -53 -87 -69 -215 -25 -193 -31 -417 -18 -599 24 -328 80 -554
171 -695 53 -81 106 -116 179 -116 75 0 136 31 224 114 59 55 186 212 222 275
9 17 12 16 36 -3 58 -45 73 -112 89 -386 25 -449 67 -715 112 -715 77 0 354
521 590 1110 184 459 355 975 483 1458 30 113 57 207 59 209 9 9 117 -31 112
-42 -2 -6 -45 -155 -94 -331 -205 -723 -385 -1406 -456 -1729 -69 -313 -72
-301 35 -145 262 384 474 632 586 685 80 38 142 -19 174 -160 17 -73 17 -415
0 -650 -28 -396 -24 -730 10 -874 75 -311 377 -430 749 -296 105 38 174 75
285 150 53 36 99 65 103 65 21 0 278 314 368 448 129 193 248 494 303 767 65
325 53 717 -34 1049 -140 535 -493 1023 -970 1341 -283 188 -663 325 -1010
365 -126 14 -460 11 -585 -6z"/>
<path d="M92 2985 c-38 -129 -66 -269 -83 -414 -15 -136 -6 -492 15 -621 110
-646 466 -1197 1006 -1559 297 -199 618 -319 995 -373 133 -19 473 -16 619 6
211 31 457 102 626 181 l55 25 -40 -5 c-50 -7 -181 16 -256 44 -188 71 -332
239 -374 436 -22 100 -29 421 -16 690 36 739 37 843 12 884 -7 10 -14 10 -40
-3 -73 -38 -192 -184 -433 -532 -139 -200 -214 -294 -270 -334 -52 -38 -85
-39 -98 -4 -22 56 -5 245 40 460 19 91 21 136 5 82 -17 -53 -171 -381 -227
-483 -83 -151 -142 -239 -208 -309 -64 -68 -95 -86 -145 -86 -102 0 -153 96
-190 360 -13 93 -23 221 -41 527 l-6 93 -66 -69 c-80 -82 -204 -165 -281 -188
-171 -52 -307 12 -400 187 -96 181 -145 452 -159 890 l-7 225 -33 -110z"/>
</g>
</svg>
