<?xml version="1.0" standalone="no"?>
<!DOCTYPE svg PUBLIC "-//W3C//DTD SVG 20010904//EN"
 "http://www.w3.org/TR/2001/REC-SVG-20010904/DTD/svg10.dtd">
<svg version="1.0" xmlns="http://www.w3.org/2000/svg"
 width="464.000000pt" height="540.000000pt" viewBox="0 0 464.000000 540.000000"
 preserveAspectRatio="xMidYMid meet">
<metadata>
Created by potrace 1.15, written by Peter Selinger 2001-2017
</metadata>
<g transform="translate(0.000000,540.000000) scale(0.100000,-0.100000)"
fill="#000000" stroke="none">
<path d="M2000 5384 c-391 -53 -814 -232 -1115 -472 -222 -178 -397 -373 -539
-602 -52 -84 -53 -87 -69 -215 -25 -193 -31 -417 -18 -599 24 -328 80 -554
171 -695 53 -81 106 -116 179 -116 75 0 136 31 224 114 59 55 186 212 222 275
9 17 12 16 36 -3 58 -45 73 -112 89 -386 25 -449 67 -715 112 -715 77 0 354
521 590 1110 184 459 355 975 483 1458 30 113 57 207 59 209 9 9 117 -31 112
-42 -2 -6 -45 -155 -94 -331 -205 -723 -385 -1406 -456 -1729 -69 -313 -72
-301 35 -145 262 384 474 632 586 685 80 38 142 -19 174 -160 17 -73 17 -415
0 -650 -28 -396 -24 -730 10 -874 75 -311 377 -430 749 -296 105 38 174 75
285 150 53 36 99 65 103 65 21 0 278 314 368 448 129 193 248 494 303 767 65
325 53 717 -34 1049 -140 535 -493 1023 -970 1341 -283 188 -663 325 -1010
365 -126 14 -460 11 -585 -6z"/>
<path d="M92 3745 c-38 -129 -66 -269 -83 -414 -15 -136 -6 -492 15 -621 110
-646 466 -1197 1006 -1559 297 -199 618 -319 995 -373 133 -19 473 -16 619 6
211 31 457 102 626 181 l55 25 -40 -5 c-50 -7 -181 16 -256 44 -188 71 -332
239 -374 436 -22 100 -29 421 -16 690 36 739 37 843 12 884 -7 10 -14 10 -40
-3 -73 -38 -192 -184 -433 -532 -139 -200 -214 -294 -270 -334 -52 -38 -85
-39 -98 -4 -22 56 -5 245 40 460 19 91 21 136 5 82 -17 -53 -171 -381 -227
-483 -83 -151 -142 -239 -208 -309 -64 -68 -95 -86 -145 -86 -102 0 -153 96
-190 360 -13 93 -23 221 -41 527 l-6 93 -66 -69 c-80 -82 -204 -165 -281 -188
-171 -52 -307 12 -400 187 -96 181 -145 452 -159 890 l-7 225 -33 -110z"/>
<path d="M2937 698 c-31 -24 -49 -124 -53 -293 -3 -159 -3 -159 -33 -202 -17
-24 -35 -43 -41 -43 -15 0 -12 75 9 175 19 93 17 105 -20 105 -9 0 -19 -6 -22
-14 -5 -12 -13 -11 -46 6 -91 45 -161 -12 -205 -166 -32 -108 -108 -149 -173
-91 l-28 24 57 1 c45 0 63 5 84 24 24 20 28 32 32 89 4 60 2 68 -21 91 -19 18
-37 26 -63 26 -93 0 -146 -64 -148 -182 -1 -85 -13 -65 -22 38 -9 104 -17 124
-49 124 -19 0 -32 -11 -55 -47 -17 -26 -30 -44 -30 -39 0 4 11 82 25 174 14
91 23 172 21 179 -3 7 -16 13 -29 13 -23 0 -24 -5 -60 -252 -52 -353 -53 -370
-32 -388 27 -23 47 -1 78 86 48 139 59 164 66 159 5 -2 11 -31 13 -63 10 -104
56 -153 126 -132 16 4 36 4 43 -1 20 -12 86 -11 112 2 12 6 31 20 43 30 20 19
21 19 49 -11 37 -38 95 -41 146 -7 l34 23 21 -25 c26 -30 59 -24 104 21 26 25
34 29 41 17 5 -8 9 -19 9 -26 0 -6 14 -23 32 -38 61 -51 131 -9 173 106 16 44
24 56 24 38 2 -50 31 -128 58 -148 61 -49 92 -22 194 174 42 79 43 78 54 -50
8 -99 22 -144 55 -177 24 -24 36 -28 82 -28 67 0 131 37 177 103 29 43 29 45
12 61 -10 9 -21 16 -25 16 -4 0 -31 -25 -60 -54 -63 -65 -96 -77 -134 -49 -32
24 -39 48 -52 181 -14 134 -21 152 -59 152 -24 0 -36 -8 -56 -37 -23 -35 -25
-36 -25 -13 0 14 7 81 15 150 20 167 20 160 -14 160 -32 0 -26 30 -61 -295
-14 -130 -26 -197 -39 -222 l-18 -37 -16 25 c-22 33 -37 135 -37 250 0 104 3
109 56 109 19 0 24 5 24 26 0 24 -2 26 -35 20 l-34 -7 -3 68 c-3 65 -4 68 -28
68 -27 0 -36 -24 -39 -97 -1 -36 -2 -36 -51 -43 -50 -7 -55 -11 -44 -38 4 -11
16 -14 45 -10 l40 6 -6 -39 c-31 -179 -60 -274 -95 -312 -25 -26 -44 -20 -61
20 -19 47 -15 85 21 178 37 100 49 212 31 287 -19 73 -48 98 -84 71z m-216
-337 c33 -33 36 -64 13 -119 -22 -54 -62 -92 -96 -92 -69 0 -71 139 -2 208 17
17 37 32 44 32 6 0 25 -13 41 -29z"/>
<path d="M1075 658 c-2 -7 -11 -52 -20 -99 -19 -106 -56 -244 -86 -324 -25
-66 -31 -62 -43 35 -11 87 -44 106 -81 47 -11 -18 -30 -33 -41 -35 -31 -4 -55
63 -62 171 l-5 87 -30 0 -30 0 6 -97 c7 -121 21 -168 57 -205 32 -31 73 -37
106 -13 21 14 22 12 33 -42 24 -120 80 -125 130 -12 44 99 135 469 120 483
-15 13 -50 16 -54 4z"/>
<path d="M1656 633 c-3 -21 -6 -50 -6 -65 0 -27 -1 -28 -57 -28 l-58 0 3 55
c4 53 3 55 -22 55 -23 0 -26 -5 -37 -60 -6 -33 -16 -60 -21 -60 -6 0 -8 -10
-4 -23 7 -28 -45 -232 -73 -284 l-20 -38 -1 52 c0 28 7 84 15 124 12 58 13 74
3 81 -25 15 -48 9 -49 -14 0 -13 -3 -17 -6 -10 -8 21 -60 42 -104 42 -36 0
-48 -6 -80 -39 -48 -51 -73 -125 -67 -199 4 -47 10 -60 37 -84 47 -42 108 -40
159 6 l38 35 11 -30 c9 -23 17 -29 41 -29 36 0 56 21 86 94 l23 58 7 -40 c3
-22 18 -54 32 -71 49 -59 115 -31 148 62 12 35 15 37 15 16 3 -90 63 -189 116
-189 43 0 84 28 85 57 0 15 -40 21 -62 9 -23 -14 -52 13 -66 62 -14 46 -32
191 -32 254 l0 48 65 0 65 0 0 30 0 30 -65 0 -65 0 0 65 c0 62 -1 65 -24 65
-19 0 -24 -6 -30 -37z m-16 -175 c-1 -78 -56 -268 -79 -268 -27 0 -52 173 -37
254 l7 36 54 0 c50 0 55 -2 55 -22z m-359 -92 c26 -42 24 -62 -11 -123 -45
-79 -113 -103 -134 -47 -20 53 10 154 58 191 33 27 62 20 87 -21z"/>
</g>
</svg>
